<?xml version="1.0" encoding="utf-8"?>
<!-- Generator: Adobe Illustrator 16.0.0, SVG Export Plug-In . SVG Version: 6.00 Build 0)  -->
<!DOCTYPE svg PUBLIC "-//W3C//DTD SVG 1.1//EN" "http://www.w3.org/Graphics/SVG/1.1/DTD/svg11.dtd">
<svg version="1.1" id="Layer_1" xmlns="http://www.w3.org/2000/svg" xmlns:xlink="http://www.w3.org/1999/xlink" x="0px" y="0px"
	 width="90px" height="25px" viewBox="0 0 90 25" style="enable-background:new 0 0 90 25;" xml:space="preserve">
<g>
	<g>
		<path d="M18.717,15.081l-0.715,6.729H0.688v-0.531L14.251,1.458H9.284c-0.577,0-1.061,0.01-1.45,0.031
			c-0.39,0.02-0.747,0.061-1.071,0.121c-0.668,0.131-1.42,0.684-2.255,1.655c-0.835,0.973-1.465,2-1.891,3.083H1.553l0.653-6.09
			h16.146V0.79L4.789,20.611h5.119c0.86,0,1.776-0.061,2.749-0.183c0.972-0.122,1.604-0.329,1.898-0.623
			c0.659-0.628,1.271-1.397,1.838-2.309c0.567-0.911,0.987-1.716,1.261-2.416H18.717z" fill="#20a8d8"/>
	</g>
	<g>
		<path d="M23.482,6.543h-5.82V5h5.82V6.543z"/>
	</g>
	<g>
		<path d="M25.554,21.811h-1.872v-6.424c0-0.338,0.039-0.81,0.116-1.414l-1.681,6.648h-0.99l-1.689-6.648
			c0.078,0.615,0.116,1.087,0.116,1.414v6.424h-1.872V8.788h1.839l2.047,7.198c0.022,0.077,0.039,0.274,0.05,0.59
			c0-0.138,0.017-0.335,0.05-0.59l2.047-7.198h1.839V21.811z" fill="#20a8d8"/>
		<path d="M32.427,21.811h-1.822V21.52c-0.433,0.066-0.865,0.133-1.298,0.199c-0.566,0.083-0.996,0.125-1.29,0.125
			c-0.693,0-1.04-0.341-1.04-1.023v-3.028c0-0.693,0.358-1.041,1.074-1.041h2.571v-1.93h-1.822v1.198h-1.722v-1.573
			c0-0.693,0.357-1.04,1.073-1.04h3.22c0.705,0,1.057,0.347,1.057,1.04V21.811z M30.622,20.296v-2.255h-1.822v2.321L30.622,20.296z"
			/>
		<path d="M39.4,21.811h-1.914v-6.814l-1.789,0.033v6.781h-1.906v-8.404h1.906v0.308c0.444-0.071,0.885-0.141,1.323-0.208
			c0.544-0.088,0.99-0.133,1.34-0.133c0.693,0,1.04,0.341,1.04,1.023V21.811z"/>
		<path d="M46.183,21.811h-1.823V21.52c-0.433,0.066-0.865,0.133-1.298,0.199c-0.566,0.083-0.996,0.125-1.29,0.125
			c-0.693,0-1.04-0.341-1.04-1.023v-3.028c0-0.693,0.358-1.041,1.074-1.041h2.571v-1.93h-1.822v1.198h-1.722v-1.573
			c0-0.693,0.357-1.04,1.073-1.04h3.22c0.704,0,1.058,0.347,1.058,1.04V21.811z M44.376,20.296v-2.255h-1.822v2.321L44.376,20.296z"
			/>
		<path d="M53.122,23.841c0,0.693-0.358,1.04-1.074,1.04h-3.312c-0.716,0-1.073-0.347-1.073-1.04v-1.348h1.839V23.5h1.723v-1.739
			h-1.956c-0.532,0-0.955-0.149-1.269-0.449s-0.47-0.713-0.47-1.24v-5.143c0-0.482,0.136-0.862,0.407-1.14s0.646-0.416,1.123-0.416
			c0.239,0,0.96,0.114,2.164,0.341v-0.308h1.897V23.841z M51.225,20.229v-5.167c-0.638-0.066-1.035-0.101-1.19-0.101
			c-0.41,0-0.615,0.203-0.615,0.607v4.028c0,0.421,0.211,0.632,0.632,0.632H51.225z"/>
		<path d="M59.937,20.771c0,0.693-0.358,1.04-1.073,1.04h-3.287c-0.716,0-1.073-0.347-1.073-1.04v-6.324
			c0-0.693,0.357-1.04,1.073-1.04h3.287c0.715,0,1.073,0.347,1.073,1.04v3.087l-0.524,0.524h-3.087v2.355h1.789v-1.398h1.822V20.771
			z M58.114,16.818v-2.014h-1.789v2.014H58.114z"/>
		<path d="M70.588,21.811h-1.889v-6.814l-1.789,0.033v6.781h-1.897v-6.814l-1.789,0.033v6.781h-1.905v-8.404h1.905v0.308
			c0.443-0.071,0.885-0.144,1.323-0.216c0.538-0.083,0.984-0.125,1.34-0.125c0.438,0,0.721,0.125,0.849,0.374
			c0.466-0.071,0.932-0.146,1.397-0.225c0.616-0.1,1.087-0.149,1.415-0.149c0.693,0,1.04,0.341,1.04,1.023V21.811z"/>
		<path d="M77.386,20.771c0,0.693-0.358,1.04-1.073,1.04h-3.287c-0.716,0-1.073-0.347-1.073-1.04v-6.324
			c0-0.693,0.357-1.04,1.073-1.04h3.287c0.715,0,1.073,0.347,1.073,1.04v3.087l-0.524,0.524h-3.087v2.355h1.789v-1.398h1.822V20.771
			z M75.563,16.818v-2.014h-1.789v2.014H75.563z"/>
		<path d="M84.375,21.811h-1.914v-6.814l-1.789,0.033v6.781h-1.905v-8.404h1.905v0.308c0.443-0.071,0.885-0.141,1.323-0.208
			c0.543-0.088,0.99-0.133,1.34-0.133c0.693,0,1.04,0.341,1.04,1.023V21.811z"/>
		<path d="M89.368,21.811h-2.114c-0.704,0-1.057-0.347-1.057-1.04v-5.741h-0.898v-1.623h0.898v-2.28h1.897v2.28h1.224v1.623h-1.224
			v5.158h1.273V21.811z"/>
	</g>
</g>
</svg>
