<?xml version="1.0" encoding="utf-8"?>
<!-- Generator: Adobe Illustrator 16.0.0, SVG Export Plug-In . SVG Version: 6.00 Build 0)  -->
<!DOCTYPE svg PUBLIC "-//W3C//DTD SVG 1.1//EN" "http://www.w3.org/Graphics/SVG/1.1/DTD/svg11.dtd">
<svg version="1.1" id="Layer_1" xmlns="http://www.w3.org/2000/svg" xmlns:xlink="http://www.w3.org/1999/xlink" x="0px" y="0px"
	 width="30px" height="30px" viewBox="0 0 30 30" style="enable-background:new 0 0 30 30;" xml:space="preserve">
<g>
	<path d="M25.117,20.125l-0.802,7.553H4.884V27.08L20.105,4.836h-5.574c-0.647,0-1.19,0.012-1.627,0.035
		c-0.438,0.022-0.839,0.068-1.202,0.136c-0.75,0.147-1.594,0.767-2.531,1.858c-0.938,1.092-1.645,2.245-2.122,3.46H5.855L6.588,3.49
		h18.119v0.597L9.487,26.332h5.745c0.965,0,1.992-0.068,3.085-0.205c1.091-0.137,1.8-0.369,2.13-0.699
		c0.738-0.705,1.426-1.568,2.063-2.59c0.636-1.023,1.107-1.926,1.416-2.713H25.117z" fill="#20a8d8"/>
</g>
</svg>
